<svg width="20" height="20" viewBox="0 0 20 20" fill="none" xmlns="http://www.w3.org/2000/svg">
<path d="M19.8996 17.7534L19.6729 17.5534C19.0299 16.9804 18.467 16.3234 17.9996 15.6C17.4891 14.6017 17.1831 13.5115 17.0996 12.3934V9.10005C17.0969 8.70002 17.0612 8.30089 16.9929 7.90671C15.8637 7.67461 14.8493 7.05939 14.1216 6.16524C13.3939 5.27108 12.9975 4.15291 12.9996 3.00005V2.58005C12.3035 2.23751 11.5557 2.01225 10.7863 1.91338V1.07338C10.7863 0.837337 10.6925 0.610963 10.5256 0.444055C10.3587 0.277148 10.1323 0.18338 9.89626 0.18338C9.66022 0.18338 9.43384 0.277148 9.26694 0.444055C9.10003 0.610963 9.00626 0.837337 9.00626 1.07338V1.94671C7.28341 2.18975 5.70664 3.04788 4.56708 4.36267C3.42751 5.67746 2.80208 7.36014 2.80626 9.10005V12.3934C2.72277 13.5115 2.41678 14.6017 1.90626 15.6C1.44685 16.3216 0.893058 16.9785 0.259595 17.5534L0.0329285 17.7534V19.6334H19.8996V17.7534Z" fill="#666666"/>
</svg>
